<svg xmlns="http://www.w3.org/2000/svg" viewBox="0 0 337.47 133.05"><defs><style>.cls-1,.cls-2{fill:#231f20;}.cls-2{font-size:117.85px;font-family:PFBeauSansPro-Regular, PF BeauSans Pro;}.cls-3{fill:#f8b817;}.cls-4{fill:#fab915;}.cls-5{fill:#020202;}</style></defs><title>Asset 1</title><g id="Layer_2"><g id="Layer_9"><path class="cls-1" d="M.37,116.13s-1.3-7.2,15.28-6.55c11.78,1.6,16.72-3.13,20.72-7,8.83.22,19.41-6.33,19.41-18.76C55.13,68.57,40.08,66.5,34.62,64c-9.09-3.86-12.87-8.8-6.76-17,4.42.71,8.22-1.74,9.45-8.43a4.89,4.89,0,0,1,2.48-1.68c-2,0-1.53.44-3.06.59-7.4-2.26-11.54.36-12.21,4.58-2.06,4-6.57,4.32-5.46,14,1.38,10,10.11,12.36,24.22,17.74,0,0,6.61,1.75,6.4,10.91-.37,3.71-.37,6.4-7.06,10.18-5.16,2.76-13.78,2.11-17.52.65s-5.34-2.81-5.63-6c-.5-6.93,7.25-9.66,12.25-5.18,4.5,3.7,1.23,7,3.56,9.09,1.74.58,3.1.43,3.93-1.53,2-9.16-11.78-21.38-22.29-10.41-7.71,7.54.09,21.39,13.7,21.1-2.55,3.78-6.18,5.45-13.16,4.8C10.12,106.24-2.32,109.73.37,116.13Z"/><text class="cls-2" transform="translate(61.12 100.29)">erp n</text><path class="cls-3" d="M245,30.82a13.28,13.28,0,0,0-7.16,4.51c-2.76,3.62-2.18,5.08-1.76,8.88C243.75,43.83,246.83,36.22,245,30.82Z"/><path class="cls-1" d="M243.43,30.5c1.28-.37,2.25.46,1.25.91-7.41,3.34-11.12,8.14-7.07,16.13C232.79,41.38,234.81,34,243.43,30.5Z"/><path class="cls-1" d="M238.55,44.55c-1.35-.09-1.72,1.25.84,1.11,4.26-.55,8-6.69,8.34-10.59.76-10.64-5.44-15.31-8.21-17.59-4.28-3.69-13.37-3.78-12.07,4.3,1,7,6.29,8.65,8.28,8.62s2.21-2.78-.68-4.19a8.64,8.64,0,0,0-7.28-.06c-5.36,2-6.32,9.11,4,9.43,4.4-.13,5.81-2,6.77-3.53-2.68,2.51-4.71,3-8.47,2.7-5.71-.64-7.35-6.74.19-8,1.78-.27,5,.32,5.72,1.83.57,1.12-2,.93-4.43-1-4.33-3.53-4.59-13.78,3.68-11,5.33,2,9.85,7.8,11.14,13.86C247.58,36.12,244.73,44.12,238.55,44.55Z"/><circle class="cls-4" cx="253.84" cy="26.9" r="3.91"/><path class="cls-5" d="M260,26.09a6.1,6.1,0,0,0-.71-.82A7.06,7.06,0,0,0,257,23.72a5.36,5.36,0,0,0-3.86-.1A3.76,3.76,0,0,0,250.6,27a3.49,3.49,0,0,0,.65,2.08A3.31,3.31,0,0,0,253,30.25a3.23,3.23,0,0,0,1.95,0,3.16,3.16,0,0,0,1.42-1,3.23,3.23,0,0,0,.71-2.52c-.06-.34,0-.62-.13-.73s-.17-.07-.17-.09a.1.1,0,0,1,.06-.09c.05,0,.17,0,.24.07s.21.47.3.79a3.37,3.37,0,0,1-.65,2.85,3.52,3.52,0,0,1-3.86,1.25,3.73,3.73,0,0,1-2-1.38A3.86,3.86,0,0,1,250.2,27a3.71,3.71,0,0,1,.87-2.27A4.45,4.45,0,0,1,253,23.36a5.48,5.48,0,0,1,4,.23,7.09,7.09,0,0,1,2.33,1.65A5.42,5.42,0,0,1,260,26.09Z"/><path class="cls-1" d="M242,34.15a1.93,1.93,0,0,0,.39.39,2.9,2.9,0,0,0,1,.52c.81.23,1.67.11,1.69.38s-.93.4-1.83,0a2.7,2.7,0,0,1-1-.79A1.89,1.89,0,0,1,242,34.15Z"/><path class="cls-1" d="M240.37,35.85a3.78,3.78,0,0,0,.43.65,3.91,3.91,0,0,0,1.29,1c1.08.57,2.28.36,2.32.61s-.29.27-.8.27a3.38,3.38,0,0,1-1.72-.53,3.7,3.7,0,0,1-1.22-1.3A3.13,3.13,0,0,1,240.37,35.85Z"/><path class="cls-1" d="M238.52,37.43a4.28,4.28,0,0,0,.51.79,5.42,5.42,0,0,0,1.52,1.32,5,5,0,0,0,1.84.64c.52.07.85,0,.91.07s-.3.4-.94.38a3.85,3.85,0,0,1-2-.75,5,5,0,0,1-1.43-1.58A3.65,3.65,0,0,1,238.52,37.43Z"/><path class="cls-1" d="M237.34,39.5s.11.28.31.68a5.34,5.34,0,0,0,.89,1.31,3.2,3.2,0,0,0,1.27.78c.39.12.67.12.69.26s-.3.27-.79.17a2.53,2.53,0,0,1-1.47-1,4.56,4.56,0,0,1-.73-1.52C237.39,39.8,237.34,39.5,237.34,39.5Z"/><rect x="249.47" y="38.46" width="10.28" height="61.83" rx="0.58"/></g></g></svg>