<svg xmlns="http://www.w3.org/2000/svg" viewBox="0 0 444.96 190.3"><defs><style>.cls-1{fill:#fff;}.cls-2,.cls-3{fill:#231f20;}.cls-3{font-size:117.85px;font-family:PFBeauSansPro-Regular, PF BeauSans Pro;}.cls-4{fill:#f8b817;}.cls-5{fill:#fab915;}.cls-6{fill:#020202;}</style></defs><title>Asset 1</title><g id="Layer_2" data-name="Layer 2"><g id="Layer_9" data-name="Layer 9"><rect class="cls-1" width="444.96" height="190.3"/><path class="cls-2" d="M41.44,128.8s-1.31-7.2,15.27-6.54c11.78,1.6,16.73-3.13,20.73-7,8.83.22,19.41-6.32,19.41-18.76C96.2,81.24,81.14,79.17,75.69,76.66c-9.09-3.85-12.87-8.8-6.76-17,4.42.71,8.21-1.75,9.45-8.44a4.85,4.85,0,0,1,2.47-1.67c-2,0-1.52.43-3,.58-7.4-2.25-11.54.36-12.22,4.58-2,4-6.57,4.33-5.45,14C61.51,78.7,70.24,81,84.34,86.41c0,0,6.62,1.74,6.4,10.9-.36,3.71-.36,6.4-7,10.18-5.16,2.77-13.78,2.11-17.53.66s-5.33-2.82-5.63-6C60,95.2,67.78,92.48,72.78,97c4.51,3.71,1.24,7,3.56,9.09,1.75.58,3.11.44,3.93-1.53,2-9.16-11.78-21.38-22.28-10.4-7.71,7.53.08,21.38,13.7,21.09-2.56,3.78-6.18,5.46-13.16,4.8C51.18,118.91,38.75,122.4,41.44,128.8Z"/><text class="cls-3" transform="translate(102.18 112.96)">erp n</text><path class="cls-4" d="M286,43.49A13.27,13.27,0,0,0,278.88,48c-2.77,3.62-2.19,5.09-1.76,8.88C284.82,56.5,287.9,48.9,286,43.49Z"/><path class="cls-2" d="M284.5,43.17c1.28-.37,2.24.47,1.25.92-7.41,3.33-11.12,8.13-7.08,16.12C273.86,54.05,275.88,46.68,284.5,43.17Z"/><path class="cls-2" d="M279.61,57.23c-1.35-.1-1.71,1.25.84,1.1,4.26-.55,8-6.68,8.35-10.59.75-10.63-5.45-15.3-8.22-17.58-4.27-3.69-13.36-3.79-12.06,4.3,1,7,6.29,8.64,8.28,8.62s2.21-2.78-.68-4.19a8.64,8.64,0,0,0-7.28-.07c-5.36,2-6.33,9.12,4,9.44,4.39-.13,5.8-2,6.77-3.53-2.69,2.5-4.72,3-8.47,2.69-5.71-.64-7.35-6.74.19-8,1.77-.27,5,.32,5.71,1.83.58,1.12-2,.93-4.42-1-4.34-3.53-4.6-13.78,3.68-11,5.33,2,9.85,7.8,11.14,13.87C288.64,48.79,285.8,56.79,279.61,57.23Z"/><circle class="cls-5" cx="294.91" cy="39.58" r="3.91"/><path class="cls-6" d="M301.09,38.76a5.76,5.76,0,0,0-.71-.81A7.12,7.12,0,0,0,298,36.4a5.29,5.29,0,0,0-3.87-.1,3.73,3.73,0,0,0-2.48,3.35,3.45,3.45,0,0,0,.65,2.08A3.28,3.28,0,0,0,296,42.88a3.34,3.34,0,0,0,2.13-3.56c-.06-.33,0-.61-.13-.72s-.17-.07-.17-.1a.1.1,0,0,1,.05-.09c.05,0,.17,0,.25.07s.2.47.3.8a3.36,3.36,0,0,1-.66,2.84,3.57,3.57,0,0,1-1.61,1.21A3.7,3.7,0,0,1,292,42a3.86,3.86,0,0,1-.69-2.35,3.79,3.79,0,0,1,.86-2.27A4.69,4.69,0,0,1,294.05,36a5.55,5.55,0,0,1,4,.23,7.09,7.09,0,0,1,2.33,1.65A6.32,6.32,0,0,1,301.09,38.76Z"/><path class="cls-2" d="M283,46.82a2.12,2.12,0,0,0,.39.4,3,3,0,0,0,1,.52c.81.23,1.66.1,1.69.38s-.94.39-1.83,0a2.6,2.6,0,0,1-1-.79A1.89,1.89,0,0,1,283,46.82Z"/><path class="cls-2" d="M281.44,48.52a3.33,3.33,0,0,0,.42.65,4,4,0,0,0,1.29,1c1.08.57,2.28.36,2.32.62s-.29.26-.79.26a3.39,3.39,0,0,1-1.73-.53,3.67,3.67,0,0,1-1.21-1.3A3.13,3.13,0,0,1,281.44,48.52Z"/><path class="cls-2" d="M279.58,50.1a5.06,5.06,0,0,0,.51.79,5.31,5.31,0,0,0,1.53,1.32,4.75,4.75,0,0,0,1.84.65c.51.06.84-.06.91.07s-.3.4-.94.38a3.93,3.93,0,0,1-2-.76A4.92,4.92,0,0,1,280,51,4.2,4.2,0,0,1,279.58,50.1Z"/><path class="cls-2" d="M278.4,52.18s.12.27.32.67a5.29,5.29,0,0,0,.89,1.32,3.05,3.05,0,0,0,1.27.77c.38.12.66.12.69.26s-.3.27-.8.18a2.55,2.55,0,0,1-1.46-1,4.28,4.28,0,0,1-.73-1.52A7.14,7.14,0,0,1,278.4,52.18Z"/><rect x="290.53" y="51.13" width="10.28" height="61.83" rx="0.58"/></g></g></svg>